<?xml version="1.0" standalone="no"?>
<!DOCTYPE svg PUBLIC "-//W3C//DTD SVG 20010904//EN"
 "http://www.w3.org/TR/2001/REC-SVG-20010904/DTD/svg10.dtd">
<svg version="1.0" xmlns="http://www.w3.org/2000/svg"
 width="174.000000pt" height="174.000000pt" viewBox="0 0 174.000000 174.000000"
 preserveAspectRatio="xMidYMid meet">
<metadata>
Created by potrace 1.11, written by Peter Selinger 2001-2013
</metadata>
<g transform="translate(0.000000,174.000000) scale(0.100000,-0.100000)"
fill="#000000" stroke="none">
<path d="M0 870 l0 -870 870 0 870 0 0 870 0 870 -870 0 -870 0 0 -870z m538
634 c-59 -18 -75 -42 -89 -125 -18 -111 -18 -113 -32 -97 -9 12 -27 14 -80 9
-38 -4 -71 -3 -74 2 -9 15 7 74 28 101 49 63 174 125 249 125 l45 0 -47 -15z
m461 0 c63 -18 131 -77 160 -137 11 -23 32 -106 45 -185 28 -157 32 -168 67
-186 31 -15 51 -76 47 -144 l-3 -52 37 0 c33 0 64 -15 35 -18 -7 0 -110 -5
-229 -11 -154 -7 -232 -15 -269 -27 -50 -17 -56 -17 -121 0 -46 12 -137 21
-275 27 -114 5 -211 13 -217 19 -7 7 2 10 26 10 l35 0 -4 48 c-7 68 24 146 58
150 21 2 29 -3 39 -28 14 -34 54 -70 79 -70 10 0 4 8 -15 19 -18 11 -38 35
-46 57 -15 36 -14 50 12 199 15 88 33 172 40 185 39 77 107 128 197 149 65 15
244 13 302 -5z m259 -30 c62 -31 83 -49 110 -88 20 -31 32 -59 30 -75 -3 -24
-6 -25 -53 -22 -110 8 -108 8 -115 -19 -4 -17 -9 2 -14 55 -4 44 -16 99 -26
122 -16 36 -25 44 -67 58 l-48 15 53 -4 c37 -2 77 -15 130 -42z m-352 -973 c6
-40 4 -47 -20 -66 -14 -11 -26 -31 -26 -43 0 -26 -30 -30 -72 -10 -27 13 -55
48 -39 48 6 0 13 -4 16 -10 3 -5 14 -10 23 -10 13 0 9 6 -12 23 -26 21 -28 27
-22 68 l6 44 70 0 70 0 6 -44z m-483 -368 c-7 -2 -19 -2 -25 0 -7 3 -2 5 12 5
14 0 19 -2 13 -5z m170 0 c-29 -2 -77 -2 -105 0 -29 2 -6 3 52 3 58 0 81 -1
53 -3z m450 0 c-7 -2 -19 -2 -25 0 -7 3 -2 5 12 5 14 0 19 -2 13 -5z m170 0
c-29 -2 -77 -2 -105 0 -29 2 -6 3 52 3 58 0 81 -1 53 -3z m-135 -80 c-142 -2
-374 -2 -515 0 -142 1 -26 2 257 2 283 0 399 -1 258 -2z"/>
<path d="M555 1145 c-19 -18 -25 -35 -25 -70 0 -35 6 -52 25 -70 50 -51 115
-12 115 70 0 51 -32 95 -70 95 -11 0 -32 -11 -45 -25z m61 -6 c10 -17 -13 -36
-27 -22 -12 12 -4 33 11 33 5 0 12 -5 16 -11z"/>
<path d="M1024 1152 c-34 -22 -43 -85 -19 -132 17 -34 46 -45 74 -30 67 35 49
170 -21 170 -13 0 -28 -4 -34 -8z m54 -19 c5 -17 -26 -29 -40 -15 -6 6 -7 15
-3 22 9 14 37 9 43 -7z"/>
<path d="M755 863 c-32 -17 -45 -31 -45 -50 0 -10 31 -13 120 -13 66 0 120 3
120 6 0 19 -26 48 -55 60 -45 18 -103 17 -140 -3z m113 -20 c2 -9 -9 -13 -37
-13 -40 0 -62 14 -39 24 22 9 71 2 76 -11z"/>
</g>
</svg>
